<svg id="Layer_1" data-name="Layer 1" xmlns="http://www.w3.org/2000/svg" viewBox="0 0 58.02 65.4"><defs><style>.cls-1{fill:gray;}</style></defs><path class="cls-1" d="M438.35,253.22,419.64,300.4a10.58,10.58,0,0,1-9.83,6.67h0a10.46,10.46,0,0,1-9.71-6.6l-18.53-46.72a8.83,8.83,0,0,1,8.2-12.08h0a5,5,0,0,1,3,.83,3.94,3.94,0,0,1,1.56,2.1l12.62,34.93c.68,2,1.28,4,1.78,6h0a1.42,1.42,0,0,0,2.75,0h0q.76-2.92,1.84-6l12.88-34.93a4.32,4.32,0,0,1,1.59-2.1,4.53,4.53,0,0,1,2.75-.83h0A8.44,8.44,0,0,1,438.35,253.22Z" transform="translate(-380.93 -241.67)"/></svg>