<svg xmlns="http://www.w3.org/2000/svg" xmlns:xlink="http://www.w3.org/1999/xlink" width="50" height="49" viewBox="0 0 50 49">
  <defs>
    <style>
      .cls-1 {
        fill: #5f5f5f;
        fill-rule: evenodd;
        <!-- filter: url(#filter); -->
      }
    </style>
    <filter id="filter" x="430" y="129" width="50" height="49" filterUnits="userSpaceOnUse">
      <feOffset result="offset" dy="-2" in="SourceAlpha"/>
      <feGaussianBlur result="blur"/>
      <feFlood result="flood" flood-opacity="0.2"/>
      <feComposite result="composite" operator="in" in2="blur"/>
      <feBlend result="blend" in="SourceGraphic"/>
    </filter>
  </defs>
  <path id="linkedin" class="cls-1" d="M458,151.562s3.26-6.355,10-5.875,11.655,4.877,12,14.688l-10-1.958s-1.052-4.131-5-3.917-5.183.783-7,2.937S458,151.562,458,151.562ZM431,147h10v31H431V147Zm17,0h10v31H448V147Zm22,11h10v20H470V158Zm-34-27a6,6,0,1,1-6,6A6,6,0,0,1,436,131Z" transform="translate(-430 -129)"/>
</svg>
