<svg xmlns="http://www.w3.org/2000/svg" xmlns:xlink="http://www.w3.org/1999/xlink" width="50.062" height="43" viewBox="0 0 50.062 43">
  <defs>
    <style>
      .cls-1 {
        fill: #5f5f5f;
        fill-rule: evenodd;
        <!-- filter: url(#filter); -->
      }
    </style>
    <filter id="filter" x="229.969" y="132" width="50.062" height="43" filterUnits="userSpaceOnUse">
      <feOffset result="offset" dy="-2" in="SourceAlpha"/>
      <feGaussianBlur result="blur"/>
      <feFlood result="flood" flood-opacity="0.2"/>
      <feComposite result="composite" operator="in" in2="blur"/>
      <feBlend result="blend" in="SourceGraphic"/>
    </filter>
  </defs>
  <path id="twitter" class="cls-1" d="M275,141l5.035-1s-4.218,4.743-5.035,5a0.114,0.114,0,0,1-.025-0.006A15.853,15.853,0,0,0,275,148c-9.622,41.225-45.032,23-45.032,23,12.883,0.339,14.032-5,14.032-5-7.545-1.139-9-6-9-6a3.15,3.15,0,0,0,4-1c-8.144-2.1-7-10-7-10a9.57,9.57,0,0,0,4.908,1.9c-0.921-1.068-8.521-10.18-3.908-14.9,0,0,5.551,9.983,20.251,10.937l0.982-.245A10.493,10.493,0,0,1,264.5,134c6.991,0,8.5,4,8.5,4l5-3S277.452,140.013,275,141Z" transform="translate(-229.969 -132)"/>
</svg>
